<svg id="svg" version="1.1" width="421" height="354" xmlns="http://www.w3.org/2000/svg" xmlns:xlink="http://www.w3.org/1999/xlink" ><g id="svgg"><path id="path0" d="M109.739 40.541 C 63.803 44.686,29.829 50.918,25.185 56.050 C 22.845 58.636,26.747 58.638,38.005 56.057 C 57.776 51.524,58.846 52.354,60.981 73.877 C 62.301 87.188,62.461 87.411,70.664 87.411 C 78.313 87.411,78.903 85.922,77.637 69.834 C 76.476 55.078,78.180 52.273,88.446 52.039 C 95.430 51.880,96.527 55.740,93.880 71.176 C 92.279 80.509,93.195 82.214,100.283 83.100 C 107.844 84.045,108.027 83.738,109.768 67.155 C 111.795 47.860,112.026 47.416,120.665 46.150 C 129.449 44.863,137.847 42.520,137.494 41.455 C 137.141 40.393,118.265 39.771,109.739 40.541 M183.373 49.494 C 177.363 52.661,172.105 55.582,171.687 55.986 C 171.140 56.516,167.451 94.577,167.240 101.865 C 167.230 102.237,164.656 104.284,161.520 106.413 C 158.385 108.543,155.817 110.803,155.815 111.437 C 155.812 112.071,154.776 120.710,153.512 130.635 C 150.821 151.771,150.508 150.652,157.417 144.591 C 160.433 141.945,162.977 139.862,163.071 139.962 C 163.165 140.061,160.331 174.988,156.774 217.577 C 151.983 274.946,150.590 295.196,151.400 295.723 C 153.800 297.284,155.469 295.456,162.894 283.135 C 207.753 208.698,293.297 117.100,325.778 108.725 C 330.967 107.387,341.265 110.545,350.594 116.335 L 355.819 119.578 356.439 116.084 C 356.780 114.162,357.355 108.314,357.716 103.088 L 358.374 93.587 346.547 87.173 C 332.923 79.785,333.184 79.829,325.648 83.658 C 308.282 92.483,252.974 136.786,239.988 152.273 C 238.126 154.495,236.612 155.657,236.606 154.869 C 236.600 154.086,237.654 139.549,238.948 122.565 C 241.843 84.562,241.818 86.461,239.430 86.461 C 237.878 86.461,237.519 87.113,237.473 90.024 C 237.442 91.983,236.266 108.858,234.860 127.524 L 232.304 161.461 218.527 177.358 C 186.557 214.249,178.827 223.473,169.476 235.891 C 160.987 247.163,159.620 248.597,159.620 246.230 C 159.620 244.717,161.345 224.077,163.454 200.362 C 167.226 157.947,173.872 81.961,173.872 81.252 C 173.872 81.053,177.882 78.721,182.784 76.071 C 193.740 70.147,193.433 70.545,194.214 61.283 C 194.567 57.102,195.110 51.437,195.421 48.694 C 196.117 42.553,196.609 42.520,183.373 49.494 " stroke="none" fill="#FFF" fill-rule="evenodd"></path></g></svg>